{
    "asset" : {
        "generator" : "Khronos glTF Blender I/O v1.1.46",
        "version" : "2.0"
    },
    "scene" : 0,
    "scenes" : [
        {
            "name" : "Scene",
            "nodes" : [
                0
            ]
        }
    ],
    "nodes" : [
        {
            "mesh" : 0,
            "name" : "Implant",
            "rotation" : [
                0.7071068286895752,
                0,
                0,
                0.7071067094802856
            ],
            "scale" : [
                0.11464376747608185,
                0.11464377492666245,
                0.11464377492666245
            ],
            "translation" : [
                31.518537521362305,
                17.028169631958008,
                13.826777458190918
            ]
        }
    ],
    "materials" : [
        {
            "alphaMode" : "BLEND",
            "doubleSided" : true,
            "emissiveFactor" : [
                0,
                0,
                0
            ],
            "name" : "Silicone_Rubber_White_#3",
            "pbrMetallicRoughness" : {
                "baseColorFactor" : [
                    0.25293800234794617,
                    0.25293800234794617,
                    0.25293800234794617,
                    0.3902319669723511
                ],
                "metallicFactor" : 0.61188805103302,
                "roughnessFactor" : 0.0619659498333931
            }
        }
    ],
    "meshes" : [
        {
            "name" : "Implant-Mesh",
            "primitives" : [
                {
                    "attributes" : {
                        "POSITION" : 0,
                        "NORMAL" : 1,
                        "TEXCOORD_0" : 2
                    },
                    "indices" : 3,
                    "material" : 0
                }
            ]
        }
    ],
    "accessors" : [
        {
            "bufferView" : 0,
            "componentType" : 5126,
            "count" : 37840,
            "max" : [
                -213.1251678466797,
                -58.828311920166016,
                148.04690551757812
            ],
            "min" : [
                -336.7266845703125,
                -182.38450622558594,
                112.04291534423828
            ],
            "type" : "VEC3"
        },
        {
            "bufferView" : 1,
            "componentType" : 5126,
            "count" : 37840,
            "type" : "VEC3"
        },
        {
            "bufferView" : 2,
            "componentType" : 5126,
            "count" : 37840,
            "type" : "VEC2"
        },
        {
            "bufferView" : 3,
            "componentType" : 5123,
            "count" : 125610,
            "type" : "SCALAR"
        }
    ],
    "bufferViews" : [
        {
            "buffer" : 0,
            "byteLength" : 454080,
            "byteOffset" : 0
        },
        {
            "buffer" : 0,
            "byteLength" : 454080,
            "byteOffset" : 454080
        },
        {
            "buffer" : 0,
            "byteLength" : 302720,
            "byteOffset" : 908160
        },
        {
            "buffer" : 0,
            "byteLength" : 251220,
            "byteOffset" : 1210880
        }
    ],
    "buffers" : [
        {
            "byteLength" : 1462100,
            "uri" : "data:application/octet-stream;base64,"
        }
    ]
}
